<mxfile host="app.diagrams.net" agent="Mozilla/5.0 (Windows NT 10.0; Win64; x64) AppleWebKit/537.36 (KHTML, like Gecko) Chrome/131.0.0.0 Safari/537.36" version="25.0.3">
  <diagram id="C5RBs43oDa-KdzZeNtuy" name="Page-1">
    <mxGraphModel dx="642" dy="410" grid="1" gridSize="10" guides="1" tooltips="1" connect="1" arrows="1" fold="1" page="1" pageScale="1" pageWidth="827" pageHeight="1169" math="0" shadow="0">
      <root>
        <mxCell id="WIyWlLk6GJQsqaUBKTNV-0" />
        <mxCell id="WIyWlLk6GJQsqaUBKTNV-1" parent="WIyWlLk6GJQsqaUBKTNV-0" />
        <mxCell id="L8pV754cRsekcdLMrZLq-2" value="" style="edgeStyle=orthogonalEdgeStyle;rounded=0;orthogonalLoop=1;jettySize=auto;html=1;" edge="1" parent="WIyWlLk6GJQsqaUBKTNV-1" source="L8pV754cRsekcdLMrZLq-0" target="L8pV754cRsekcdLMrZLq-1">
          <mxGeometry relative="1" as="geometry" />
        </mxCell>
        <mxCell id="L8pV754cRsekcdLMrZLq-0" value="INICIO" style="ellipse;whiteSpace=wrap;html=1;aspect=fixed;fillColor=#d80073;fontColor=#ffffff;strokeColor=#A50040;" vertex="1" parent="WIyWlLk6GJQsqaUBKTNV-1">
          <mxGeometry x="320" y="10" width="80" height="80" as="geometry" />
        </mxCell>
        <mxCell id="L8pV754cRsekcdLMrZLq-4" value="" style="edgeStyle=orthogonalEdgeStyle;rounded=0;orthogonalLoop=1;jettySize=auto;html=1;" edge="1" parent="WIyWlLk6GJQsqaUBKTNV-1" source="L8pV754cRsekcdLMrZLq-1" target="L8pV754cRsekcdLMrZLq-3">
          <mxGeometry relative="1" as="geometry" />
        </mxCell>
        <mxCell id="L8pV754cRsekcdLMrZLq-1" value="Mostrar mensaje: &quot;Por favor ingresar las medidas de la pieza del mueble (en cms): &quot;" style="shape=parallelogram;perimeter=parallelogramPerimeter;whiteSpace=wrap;html=1;fixedSize=1;fillColor=#ffcd28;strokeColor=#d79b00;gradientColor=#ffa500;" vertex="1" parent="WIyWlLk6GJQsqaUBKTNV-1">
          <mxGeometry x="265" y="170" width="190" height="90" as="geometry" />
        </mxCell>
        <mxCell id="L8pV754cRsekcdLMrZLq-7" value="" style="edgeStyle=orthogonalEdgeStyle;rounded=0;orthogonalLoop=1;jettySize=auto;html=1;" edge="1" parent="WIyWlLk6GJQsqaUBKTNV-1" source="L8pV754cRsekcdLMrZLq-3" target="L8pV754cRsekcdLMrZLq-6">
          <mxGeometry relative="1" as="geometry" />
        </mxCell>
        <mxCell id="L8pV754cRsekcdLMrZLq-3" value="Convertir medida_en_pulgadas&amp;nbsp; = medida_en_cms / 2.54" style="rounded=1;whiteSpace=wrap;html=1;fillColor=#dae8fc;gradientColor=#7ea6e0;strokeColor=#6c8ebf;" vertex="1" parent="WIyWlLk6GJQsqaUBKTNV-1">
          <mxGeometry x="285" y="320" width="150" height="80" as="geometry" />
        </mxCell>
        <mxCell id="L8pV754cRsekcdLMrZLq-9" value="" style="edgeStyle=orthogonalEdgeStyle;rounded=0;orthogonalLoop=1;jettySize=auto;html=1;" edge="1" parent="WIyWlLk6GJQsqaUBKTNV-1" source="L8pV754cRsekcdLMrZLq-6" target="L8pV754cRsekcdLMrZLq-8">
          <mxGeometry relative="1" as="geometry" />
        </mxCell>
        <mxCell id="L8pV754cRsekcdLMrZLq-6" value="Mostrar mensaje &quot;Las medidas en Pulgadas de la pieza ingresada son, medida_en_pulgadas" style="shape=parallelogram;perimeter=parallelogramPerimeter;whiteSpace=wrap;html=1;fixedSize=1;rounded=1;fillColor=#ffcd28;gradientColor=#ffa500;strokeColor=#d79b00;" vertex="1" parent="WIyWlLk6GJQsqaUBKTNV-1">
          <mxGeometry x="242.5" y="450" width="235" height="110" as="geometry" />
        </mxCell>
        <mxCell id="L8pV754cRsekcdLMrZLq-8" value="&lt;div&gt;FIN&lt;/div&gt;" style="ellipse;whiteSpace=wrap;html=1;fillColor=#d80073;strokeColor=#A50040;rounded=1;fontColor=#ffffff;" vertex="1" parent="WIyWlLk6GJQsqaUBKTNV-1">
          <mxGeometry x="320" y="655" width="80" height="80" as="geometry" />
        </mxCell>
      </root>
    </mxGraphModel>
  </diagram>
</mxfile>
